<?xml version="1.0" encoding="utf-8"?>
<!-- Generator: Adobe Illustrator 18.1.1, SVG Export Plug-In . SVG Version: 6.00 Build 0)  -->
<!DOCTYPE svg PUBLIC "-//W3C//DTD SVG 1.1//EN" "http://www.w3.org/Graphics/SVG/1.1/DTD/svg11.dtd">
<svg version="1.1" id="Layer_1" xmlns="http://www.w3.org/2000/svg" xmlns:xlink="http://www.w3.org/1999/xlink" x="0px" y="0px"
	 width="417.1px" height="182.4px" viewBox="0 0 417.1 182.4" enable-background="new 0 0 417.1 182.4" xml:space="preserve">
<g>
	<path fill="#333333" d="M364.9,169.5h-317c-21.4,0-38.7-17.3-38.7-38.7v-80C9.1,29.3,26.5,12,47.9,12h317
		c21.4,0,38.7,17.3,38.7,38.7v80C403.6,152.1,386.3,169.5,364.9,169.5z"/>
	<g>
		<g>
			<g>
				<g>
					<path fill="#F8A13B" d="M364.9,168.8c-0.5,0.1-0.2,0.3,1.3,0.2l1-0.4L364.9,168.8z"/>
					<path fill="#F8A13B" d="M374.8,168.1c1.7-0.5,3.5-1.6,2.3-1.5c-0.4,0.2-0.7,0.4-1,0.5c-0.3,0.1-0.5,0.2-0.8,0.3
						c-0.5,0.2-1.1,0.4-1.9,0.8c-0.7,0.2-1.4,0.3-1.8,0.3c-0.4,0-0.7,0-0.5-0.1c-0.3,0.1-0.8,0.2-1.4,0.2c-0.3,0-0.6,0.1-0.9,0.2
						c-0.3,0-0.5,0.1-0.7,0.1c0.2,0,0.5,0,0.8,0c0.3,0,0.5,0,0.8-0.1c0.5,0,1.1-0.1,1.7-0.2c1.2-0.1,2.4-0.5,3.6-0.9
						C375.5,167.8,375,168,374.8,168.1z"/>
					<path fill="#F8A13B" d="M400.6,34.6l0.4,0.9C400.9,35.3,400.7,35,400.6,34.6z"/>
					<path fill="#F8A13B" d="M318.2,11.4c0.7,0,1,0,1-0.1C318.5,11.3,318,11.3,318.2,11.4z"/>
					<path fill="#F8A13B" d="M302.6,11c0.3,0,0.6,0,0.9,0C303.2,11,302.8,11,302.6,11z"/>
					<path fill="#F8A13B" d="M400.6,34.6l-1-2.3C399.4,32.3,400.1,33.6,400.6,34.6z"/>
					<path fill="#F8A13B" d="M391.6,157.5c-0.4,0.3-0.6,0.6-0.9,0.9C391,158.2,391.3,157.9,391.6,157.5
						C391.6,157.6,391.6,157.6,391.6,157.5z"/>
					<path fill="#F8A13B" d="M404.3,74.5l0,0.7c0,0.2,0.1,0.4,0.1,0.6L404.3,74.5z"/>
					<path fill="#F8A13B" d="M404.4,105.4c0-0.7-0.3-0.9-0.4-1.2c0.1,0.4,0.2,0.9,0.2,1.5C404.2,105.7,404.3,105.6,404.4,105.4z"/>
					<path fill="#F8A13B" d="M396.9,153l-0.5,0.7C396.5,153.5,396.7,153.2,396.9,153z"/>
					<path fill="#F8A13B" d="M404.4,52.5c0-0.1,0.1-0.2,0.1-0.3C404.5,52.2,404.4,52.3,404.4,52.5z"/>
					<path fill="#F8A13B" d="M329.1,168.2C329.1,168.2,329.1,168.2,329.1,168.2C329.3,168.2,329.3,168.2,329.1,168.2z"/>
					<path fill="#F8A13B" d="M364.9,169.6l-0.5,0c-0.1,0.1-0.1,0.1-0.1,0.2L364.9,169.6z"/>
					<path fill="#F8A13B" d="M274.1,10.6c0.1,0,0.1,0,0.1,0C275,10.6,274.6,10.6,274.1,10.6z"/>
					<path fill="#F8A13B" d="M16.4,26.2c2-2.3-2.7,4.1,0.3,0.7c-0.2,0.1,0.4-0.8,0.6-1.3c0.2-0.3,0.3-0.5,0.1-0.4
						C17.3,25.2,17,25.5,16.4,26.2z"/>
					<path fill="#F8A13B" d="M392.2,157c0.3-0.3,0.6-0.6,0.8-0.9C392.6,156.5,392.4,156.8,392.2,157z"/>
					<path fill="#F8A13B" d="M16.7,26.9L16.7,26.9l0.3-0.4C16.8,26.7,16.8,26.8,16.7,26.9z"/>
					<path fill="#F8A13B" d="M208.5,10.8c0.1,0,0.4,0.1,0.7,0.1C209.1,10.9,209,10.9,208.5,10.8z"/>
					<path fill="#F8A13B" d="M257.4,11.2l-1.2,0C256.6,11.2,257,11.2,257.4,11.2z"/>
					<path fill="#F8A13B" d="M183.1,11.2c-0.7,0-0.9-0.1-1.8,0c0.1,0,0.2,0,0.3,0C181.9,11.2,182.4,11.2,183.1,11.2z"/>
					<path fill="#F8A13B" d="M156.7,11.2c0.1,0,0.3,0,0.5,0.1c0.3,0,0.6,0,0.8,0L156.7,11.2z"/>
					<path fill="#F8A13B" d="M248.8,168.3c0.6,0.1,0.9,0.2,1.2,0.3C249.6,168.4,253.5,168.3,248.8,168.3z"/>
					<path fill="#F8A13B" d="M391.8,157.7c0.1-0.2,0.2-0.4,0.4-0.7c-0.2,0.2-0.4,0.4-0.6,0.6C391.6,157.7,391.6,157.8,391.8,157.7z"
						/>
					<path fill="#F8A13B" d="M182,13.4l-4.2,0C179,13.4,180.5,13.4,182,13.4z"/>
					<path fill="#F8A13B" d="M59.3,168.3l1,0C59.9,168.3,59.5,168.3,59.3,168.3z"/>
					<path fill="#F8A13B" d="M165.4,13.4c-0.7-0.1-1.5-0.2-2.4-0.2c-0.2,0-0.4,0-0.5,0.1L165.4,13.4z"/>
					<path fill="#F8A13B" d="M250,168.6C250,168.6,250,168.6,250,168.6C250,168.6,250,168.6,250,168.6z"/>
					<path fill="#F8A13B" d="M277.7,167.9c-4,0-1.9,0.4-2.7,0.6c-4.8,0.1-2.2-0.3-3.8-0.5c-3,0.1-5.3,0.4-7.5,0.4
						c-0.2-0.1-0.6-0.1-0.1-0.2c-3.2,0.3-9.4,0-13,0.4c-0.3,0-0.4-0.1-0.5-0.1c0.6,0.2,0.7,0.4,0.6,0.5c-1.8,0-3.3,0.2-4,0
						c1.1,0,1.2-0.1,1.7-0.2l-1.9,0.1c-1.7-0.3,2.6-0.1,2.6-0.4c-3.7,0.1-7.9,0.4-10.7,0.3c-0.6-0.3,6.6-0.1,2.8-0.4l4.3,0.1
						c-3.3-0.5,2.6,0-0.4-0.5c-5.7-0.1-6.4,0.2-12.1,0.1c-1.3,0.2,0.4,0.3-0.9,0.5c-8.1,0.3-6.4-0.9-12.3-0.4
						c-1.5,0.2-2.1,0.7-6.4,0.4l1.4-0.4c-5.5,0-3.2,0.6-9,0.3c1-0.2,4.3-0.1,3.5-0.2c-3.8-0.3-2.7,0.2-5.5,0.2l-0.6-0.3
						c-5.9,0.1-12.4,0.2-18.9,0.4c0.4-0.1,1.5-0.2,0-0.3c-8.2,0.2-17.6,0-25.5-0.2l-3,0.3c-0.7,0-1.3-0.1-0.5-0.2
						c-3.1-0.1-0.2,0.2-1.6,0.3c-1.8,0-2.3-0.2-1.2-0.3c-5.5,0.2-15.6,0.5-21.3,0.2l1.1-0.1c-4.5-0.1-5.1,0.6-9.2,0.3l0.8-0.1
						c-9.7-0.1-20.5,0.1-27.9-0.3c-1.4,0.4-9.6-0.2-10.2,0.4c-5.6-0.3-4-0.4-11.8-0.6c-2.1,0-3.1,0.4-5.7,0.4l-0.1-0.3l-3.5,0.3
						l-1.9-0.4l-2.4,0.1c1,0,2.1,0.1,1.9,0.2c-1.9,0.1-4.2,0-6-0.1c-1.8-0.1-3.2-0.2-3.3-0.3c0,0-2.2,0.1-4.5,0.1c-1.1,0-2.2,0-3,0
						c-0.8,0-1.4,0-1.4,0c0.2-0.1,1.7-0.1,2.8-0.1c-2.3,0-2.5,0-2.7-0.1c-0.2-0.1-0.2-0.2-2.4-0.4c0.5,0.2-0.3,0.1-0.4,0.2
						c-1-0.2-2.7-0.8-4.5-1.2c-1.8-0.7-3.8-1.3-5.4-2.1l0.7,0.1c-0.7-0.4-1.5-0.7-2.2-1.1c-0.7-0.4-1.4-0.9-2.1-1.3
						c-0.7-0.4-1.4-0.9-2.1-1.4c-0.7-0.5-1.4-1-2-1.6c-2.7-2.2-5-4.9-7.1-7.9c0.7,1.1,0.9,1.5,0.8,1.5c-0.1,0-0.7-0.5-1.2-1.4
						l-0.2-0.9c-0.9-1.1,1.1,2-0.6-0.3c-1.4-2.4-0.6-1.7,0.3-0.5c0,0-0.1-0.2-0.3-0.4c-0.2-0.3-0.4-0.6-0.6-1
						c-0.4-0.7-0.8-1.5-0.8-1.5c0-0.2,0.4,0.5,0.6,0.6c-0.8-1.1-2-5.2-2.7-7l0-0.2c-0.2-0.9-0.5-1.7-0.6-2.4
						c-0.1-0.8-0.2-1.5-0.3-2.2c-0.1-0.3-0.1-0.7-0.2-1c0-0.3,0-0.7-0.1-1c0-0.6-0.1-1.3-0.1-1.9c-0.1-1.2-0.1-2.5-0.1-3.7
						c0-1.3,0-2.6,0-4.2c-0.3-0.1-0.2-2.5-0.4-4.3c0.1-4.5,0.3-9.4,0.3-14.8c-0.1-3.8-0.2-1.1-0.4-2.8c0.3-0.3,0.2-5.6,0.4-2.9
						c0-6.4-0.1-8.2-0.3-16.4c-0.1,0.9-0.2,1.9-0.2,1.4c0-1.5,0.1-3.4,0.2-3.2l0,0.4c-0.4-9.2,0.7-21.1,0.2-28.4l0,0.4
						c0,0,0-0.5,0-1.2c0-0.7-0.1-1.7,0-2.6c0-0.9,0-1.8,0-2.5c0-0.3,0.1-0.6,0.1-0.8c0-0.2,0-0.3,0-0.3c0.6-3.3-0.1,2,0.4-0.4
						c0.3-4,1.4-6.9,2.5-9.7c1.3-2.7,2.6-5.1,4.5-7.8c0.5-0.4,0.9-1,1.5-1.6c0.6-0.6,1.3-1.3,1.9-2c0.7-0.7,1.5-1.4,2.4-2.1
						c0.4-0.4,0.9-0.7,1.3-1.1c0.5-0.3,0.9-0.7,1.4-1.1c1.9-1.4,4-2.6,6-3.5c1-0.5,2-0.8,3-1.2c0.5-0.2,0.9-0.3,1.4-0.5
						c0.5-0.1,0.9-0.2,1.3-0.3l-0.4-0.1c1.7-0.6,2.1-0.5,3.3-0.7C40.7,14,39,14.4,40.1,14c3.7-0.8,7.4-0.9,11.4-0.9
						c3.9,0,7.9,0.1,11.9,0.1c8,0.1,16,0.2,23.9,0.4c5.8,0,3.3-0.9,10.5-0.5l-2.1,0.3c11.6-0.4,23.8,0,35.1-0.3
						c-0.7,0.1-0.7,0.2-1.8,0.2c2.4,0.2,8.9,0,8.9-0.2c1.8,0,0.4,0.2,1.5,0.3c2.4,0.1,6-0.3,7.3-0.1c0.2,0-0.7,0.1-1.1,0.1
						c1.6-0.1,7.3,0,5.8-0.2c4.3,0.1,8.2-0.1,11.6,0c2.2-0.3,7.3,0.1,8-0.3c-0.3,0.5,7.5,0.4,10.2,0.2c-0.9,0.1,2.3,0.1,1.3,0.3
						c3.1,0,5.9-0.1,5.4-0.3c5.7,0.5,11.4-0.4,14.6,0.3c9.2-0.2,17.6-0.4,25.9-0.5c-0.3,0.5-9.1,0-8.7,0.5
						c7.8-0.2,12.3-0.6,20.1-0.5c2,0.1-1.1,0.2-1.8,0.3c7.8-0.2,15.1,0,22-0.2c0,0-0.8,0.1-1.5,0.1c1.4,0,3.2,0.1,3-0.1l-1.3,0.1
						c-2.2-0.3,5.4-0.6,5.7-0.8c-2.3,0.6,6.9,0.1,3.2,0.9c0.9,0,2-0.1,1.8-0.3c1.3,0,1.8,0.1,0.4,0.3c4.9-0.1,3.2-0.3,7.6-0.3
						c0,0.1-0.9,0.1-1.4,0.3c2.2-0.2,4.5-0.4,8.3-0.3c-0.2,0.1,0.2,0.1-0.9,0.1c6.4,0,11-0.5,18.1-0.3c-2.1,0.4,2.4,0.1,2.8,0.5
						l3.8-0.1l-1.5-0.2c3.3,0,6.3-0.3,9.1-0.1l-2.5,0.2l6.2-0.1l-3.5-0.1c3.4-0.2-0.4-0.5,4.1-0.4c-0.9,0,3.3,0,5.1,0.2l0,0
						c1.6-0.1,3.3-0.2,5.8-0.2c0.6,0.1-0.5,0.4-0.1,0.5c1.6-0.3,7.8-0.1,9.9-0.4c-0.7,0.1-0.7,0.3-0.5,0.3l1.4-0.3
						c1.5,0.1,1.8,0.1,1.5,0.3c4.6,0-1.5-0.5,4-0.3c-0.4,0-0.2,0.1-1.1,0.1c5.5,0.1,10.7-0.2,15.8,0c1.5,0.4-4.4,0.1-2.7,0.4
						c1.8,0,3.7-0.1,5.6-0.1c0.9,0,1.8,0,2.8,0.1c0.9,0.1,1.8,0.2,2.8,0.3c0.5,0.1,0.9,0.1,1.4,0.2l1.3,0.3c0.9,0.2,1.8,0.4,2.7,0.7
						c0.9,0.3,1.7,0.6,2.6,0.9c0.8,0.3,1.6,0.7,2.4,1.1l-1.2-0.6c0.5,0,1.7,0.6,3.1,1.4c0.7,0.5,1.4,1,2.2,1.5
						c0.8,0.5,1.5,1.1,2.2,1.6c-0.7-0.5-1.1-0.4-0.9-0.4c0.9,0.7,1.9,1.4,2.8,2.3c0.9,0.8,1.9,1.7,2.8,2.7c0.5,0.5,1,1,1.5,1.5
						c0.5,0.6,0.9,1.2,1.4,1.8c1,1.2,1.8,2.7,2.8,4.2l-0.6-0.7c0.2,0.3,0.4,0.6,0.5,1c0.2,0.4,0.3,0.7,0.5,1.1
						c0.3,0.8,0.8,1.6,1.1,2.5c0.3,0.9,0.6,1.8,0.9,2.6c0.3,0.8,0.4,1.7,0.6,2.4c0.2,0.4,0.4,1.1,0.5,1.4c0.1,0.4,0.2,0.6,0.2,0
						c0.1,1.2,0.2,2.3,0.3,3.5c0.1,1.1,0.1,2.3,0.2,3.4c0.1,2.2,0.1,4.5,0.2,6.7c0.1,4.4,0.3,8.7-0.1,12.9c0-1-0.1-2.4-0.1-1.6
						L403,75c0.2-0.6,0.1-0.9,0.3-2.5c0.1,0.9,0.2,2.9,0.2,4.7c-0.2-3.2-0.4,0-0.5,1.4c0.1-0.2,0.1,0.2,0.2,0.1
						c-0.4,3.8,0.5,0.6,0.2,5.8l-0.1-0.3c0.1,1.9,0.2,3.7,0.2,5.8c-0.3,0.9-0.1-2-0.3-2.2c0,2.9,0.5,5.7,0.2,8.4
						c0-1.2-0.1-3-0.1-4.3c-0.3,2.9-0.2,3.2-0.3,5.3l0-0.2l-0.1,4.9l0.1-1.3c0.7,3.6,0.1,7.4,0.6,12.3c-0.4-4.8-0.2-0.8-0.6-1.2
						c-0.1,1.3-0.2,3.2-0.3,2.6c0.2,2.3-0.2,3.9,0.2,7.1c-0.1,0.1,0,2.5-0.3,2c0.1,3,0.2-0.7,0.3-0.5c0.2,2.3,0.1,5.1,0,8
						c-0.1,0.7-0.1,1.5-0.2,2.2c0,0.4-0.1,0.8-0.1,1.1c-0.1,0.4-0.1,0.8-0.2,1.2c-0.1,0.8-0.2,1.6-0.3,2.4c-0.2,0.8-0.3,1.6-0.5,2.4
						c-0.3,1.4-0.6,2.5-0.9,3.4c-0.3,0.9-0.5,1.8-0.8,2.5c-0.3,0.8-0.6,1.5-1,2.4c-0.4,0.9-0.9,1.8-1.6,2.9
						c-1.1,1.5,0.5-1.4,0.5-1.4c-0.4,0.6-0.8,1.2-1.1,1.7c-0.4,0.5-0.8,1-1.2,1.5c-0.4,0.5-0.7,1-1.1,1.5c-0.4,0.5-0.8,1-1.3,1.5
						c0.3-0.5-0.1-0.1-0.8,0.4c-0.7,0.8-1,1.1-1.2,1.5c-0.3,0.4-0.7,0.8-1.8,1.7c0.3-0.4,0.6-1,1.3-1.8c-0.9,0.9-1.8,1.8-2.8,2.6
						c-0.5,0.4-1,0.8-1.5,1.2c-0.5,0.4-1.1,0.7-1.6,1.1c-0.3,0.1,0-0.2,0.4-0.5c0.2-0.2,0.5-0.4,0.8-0.6c0.3-0.2,0.5-0.4,0.7-0.6
						c-0.6,0.5-1.3,0.9-2,1.4c-0.7,0.4-1.5,1-2.2,1.4c-1.5,0.8-2.7,1.5-3.1,1.8c0,0.1,1.8-0.7,1.8-0.7c-1,0.5-0.6,0,0.1-0.4
						c1.1-0.6,1.9-1,2.5-1.3c0.6-0.3,0.9-0.3,1-0.3l-1.6,1c0.5-0.1,1.1-0.4,1.9-0.9c0.4-0.2,0.8-0.5,1.2-0.7c0.4-0.3,0.8-0.6,1.2-1
						c1.7-1.3,3.4-3,4.7-4.4c0,0-0.9,1.4-0.9,1.4s0.2-0.2,0.4-0.5c0.3-0.3,0.6-0.6,0.9-1c0.6-0.8,1.2-1.6,1.2-1.6
						c0.6-0.5,1.2-0.8,0,0.6c0.5-0.5,0.9-0.8,1.1-1.1c0.2-0.3,0.4-0.6,0.6-0.8c0.3-0.5,0.6-0.9,1.4-1.8c0.2-0.2,0.1-0.1,0,0.1
						c0.1,0,1.3-2.4,1.3-2.4c-0.2,0.5,0.5-0.2-0.4,1.2c0.7-1,1.3-1.9,1.7-2.8c0.4-0.9,0.8-1.7,1.1-2.5c0.6-1.5,0.9-2.7,1.4-3.5
						l-0.1,0.4c0.1-0.4,0.3-0.8,0.4-1.1c0.1-0.3,0.1-0.6,0.2-0.8c0.1-0.5,0.2-0.8,0.2-1c0.1-0.5,0-0.5,0-0.5c-0.1,0-0.1,0.1-0.1-0.2
						c0-0.1,0-0.3,0.1-0.7c0.1-0.3,0.1-0.8,0.2-1.4c0,0,0.3-0.8,0.6-1.6c0.2-0.4,0.3-0.8,0.4-1.1c0.1-0.3,0.2-0.5,0.2-0.5l-0.3-0.7
						c0-0.7,0.1-2.1,0.2-1.8c-0.1-2.6-0.2,0.4-0.3-1.1c0.3-3.3-0.1-9.2,0.4-10c-0.2-1.2-0.2,3.2-0.3-0.4c0.5-1-0.1-4.1,0.2-7.2
						c0.3,0.9,0.1,3.8,0.4,0.8c-0.5-1.8,0.1-5.9,0-8.5c-0.4-0.1-0.2-5.6-0.3-9.9c0.1,0.3,0.2-8.1,0.3-12.1l0.1,0.1
						c-0.4-0.8-0.3-4.9-0.4-7.9c0.2,0.1,0.3,0.7,0.4,2.3l0-2.8c-0.1-0.7-0.2-1.6-0.2-3.4l0.3,0.7c0-3.8-0.3-7.6-0.1-12.5
						c-0.3-0.3-0.7,3.9-0.9-1.3c0.1-0.2,0.4-0.4,0.4,1c0-0.4-0.1-1.6-0.1-2.5l0.2,2.1c0.1-2.2-0.2-1.2-0.2-2.9
						c0.2,0,0.1-1.3,0.3-1.1c0,0.5-0.1,1.5,0,2.2c0-2,0.2-4.4,0.3-5.2c-0.1,0.2-0.3,0-0.3-1.5c-0.2-3.8,0.2-1.3,0.2-3.6
						c-0.1-0.5-0.2-1.3-0.3-2c-0.1-0.7-0.3-1.3-0.4-1.3c-0.2-1.1-0.1-1.3-0.1-1.8c-0.3-0.9-0.8-3.2-1.5-4.9
						c-0.3-0.8-0.6-1.5-0.8-1.9c-0.2-0.3-0.2-0.4-0.1,0.2l0.2,0.5c0-0.1-0.1-0.2-0.1-0.3c0,0,0,0,0,0l0,0c-1.4-2.9-2.9-5.9-5-8.6
						c-0.9-1.4-2.1-2.6-3.2-3.9c-0.5-0.6-1.2-1.1-1.8-1.7c-0.6-0.5-1.2-1.1-1.9-1.6l0.1-0.1c-3-2.4-7.2-4.6-9.8-5.4
						c-1.1-0.4-2.4-1.1-2-1c-0.7-0.2-1.2-0.4-1.7-0.5c-0.5-0.1-0.9-0.2-1.4-0.3c-0.5-0.1-1-0.2-1.6-0.4c-0.7-0.1-1.5-0.3-2.5-0.5
						c2.9,0.3-1-0.4,3,0.4c-1.9-0.4-3-0.6-4.2-0.8c-1.2-0.1-2.5-0.1-4.5-0.1c1.4-0.3-2.8-0.3-4.6-0.2l2.6,0.2c-2,0-3.8,0-5.6,0
						l1-0.3c-7.7-0.4-13.9,0.7-19.8,0c-2,0.2,4.2,0.2,2.4,0.4c-3.5,0-7.2-0.5-8.3-0.5c-4.9-0.2-4.5,0.5-9.6,0.4
						c0.6,0.1,1.3,0.4-2.5,0.5c-3.5,0-4.4-0.5-2.1-0.6c0.9,0,1.3,0,1.2,0.1c1.1,0,2.7-0.1,1.2-0.2l-0.5,0.1
						c-1.8-0.1-6.6-0.1-5.5-0.3c-2.7,0.1-1.1,0.2,0.8,0.3c-4.6-0.2-7.1,0-11.8-0.1c0.7,0.1,1.4,0.2,0.7,0.2c-6.9-0.1-3,0.2-7.7,0.3
						c-2.6-0.2,0.9-0.4-3.7-0.3c-2.9-0.1-0.6-0.3,0.5-0.4c-4.3,0.2-8-0.2-10.4-0.2l2.2-0.1c-1.3,0.1-2.4,0.1-3.6,0.1l1.3,0.2
						c-1.3,0-2.4,0-2.4-0.1c-1.4,0.2,1,0.4-1.7,0.6c-1.8-0.1-5.4,0.1-6-0.2c5.5,0.1-0.6-0.3,4.1-0.4c-0.9,0-2,0-3.3,0
						c-0.2,0,0.2-0.1,0.5-0.1c-5.3-0.3-2.4,0.4-7.9,0.3c0.7-0.2-1.3-0.3-2.2-0.3c2.2,0,1.1,0.3-1,0.4c-3.5-0.1-3.8,0.1-5.7,0.1
						l2.1,0.1c-0.7,0.2-2.5,0.2-4.9,0.2c-0.2-0.1,2.2-0.1,1.4-0.2c-2.7,0.3-6.2-0.3-10-0.1c-1.8-0.1-0.2-0.3-1.7-0.4
						c-4.3,0.2-4.6-0.2-9.1-0.1c1.3,0.2,1.5,0.2-1.6,0.4l7.4-0.2l-4.7,0.3c2.2,0,4.7-0.1,6-0.1c-2.2,0.2-2,0.1-1,0.3
						c-3-0.4-6,0.2-9.5,0l0.1-0.6c-5.3-0.3-9.4,0.3-16.2,0.2l2.2,0.1c-0.9,0.2-4.2,0-6.5,0.1c0.2-0.2-1.2-0.3-2.1-0.4
						c0.1,0.1-5,0-5.6,0.4l-3.1-0.3c-5.5-0.1-6.3,0.6-11.6,0.5c1.6-0.2-0.8-0.4,2.7-0.5c-1.8,0-3.4,0-3.4,0.1
						c-1-0.1-4.9,0.3-6.6,0.1c-0.7,0.1-1,0.3-3,0.3c-0.2,0,0-0.1,0-0.1c0,0.1-3.1,0.1-1.4,0.4c-5.5-0.6-15.3,0-20.1-0.5
						c-3.9,0.1-8.6,0.1-12.1,0.1c0.2-0.1,0-0.1,0.7-0.1c-4.9-0.2-3,0.6-8.5,0.4c-2.8-0.3,2.9-0.2,1.2-0.3c-0.8-0.6-6.7,0.1-10.4-0.3
						l0.9,0c-2.8-0.2-6.9,0.2-11.6,0.2c0,0,0.2-0.1,0-0.1c-3.2,0.3-9.2,0.4-13.7,0.5c1.4-0.3,2-0.1,1.2-0.4c-2,0,0.6,0.4-3.4,0.5
						c-1.3-0.1-4.2-0.3-4.6-0.5l3.8,0c-1.9-0.4-4.9,0-6.9,0l0.3-0.2c-5.8,0.1-5.9,0.4-12.1,0.4l0.6,0.1c-3.4,0.4-2.8-0.2-6.2,0.1
						l-1-0.4c-2.2,0.1-7.8,0.4-11.9,0.5c2.3-0.3,7-0.4,9.9-0.6c-2.2,0-7.5,0-8.7,0.2c0.9,0,2-0.1,2.9-0.1c-2.7,0.3-6.3,0.5-10.7,0.5
						c0.4-0.4-2.5-0.4-5.9-0.5c-1.7,0-3.5,0-5.1,0c-0.8,0-1.6,0-2.2,0c-0.7,0.1-1.2,0.1-1.6,0.1l-1.5,0.3l-0.7,0.1L39.1,12
						c-1,0.3-1.9,0.5-2.9,0.8c-1.9,0.7-3.8,1.3-5.7,2.2c-3.7,1.8-7.5,4.1-10.8,7.5c1.4-0.9,0.9-0.4,0.2,0.3
						c-0.7,0.8-1.6,1.8-1.2,1.8c-1.5,1.6-1.9,2.3-2,2.4c0,0-0.3,0.3-0.7,0.8c-0.4,0.5-0.9,1.1-1.4,1.8c-0.5,0.7-0.9,1.4-1.3,1.9
						c-0.4,0.5-0.5,0.9-0.5,0.9c-0.4,0.7-0.2,0.2,0.1-0.5c0.3-0.6,0.8-1.4,0.6-1.3c-0.3,0.5-0.6,0.9-0.8,1.2
						c-0.2,0.3-0.3,0.6-0.4,0.8c-0.2,0.4-0.3,0.6-0.4,0.7c-0.2,0.2-0.3,0.3-1.1,1.7c0.4-0.5-0.3,1.7-1.3,4.2c0,0,0.1-0.2,0.2-0.6
						c0.1-0.3,0.3-0.8,0.5-1.2c0.4-0.9,0.8-1.8,0.8-1.8c-0.5,1.6-0.9,2.7-1.2,3.6c-0.3,0.9-0.5,1.6-0.8,2.3
						c-0.1,0.3-0.2,0.7-0.4,1.1c-0.1,0.4-0.2,0.8-0.3,1.3c-0.1,0.5-0.2,1-0.3,1.6c0,0.3-0.1,0.7-0.1,1c0,0.4,0,0.8,0,1.2
						c0,0,0-0.5,0-1.1C8,46.1,8,45.6,8,45.6c-0.2,0.9-0.2,2.1-0.2,3.5c-0.1,1.4-0.1,3,0,4.5c0,3.1,0.1,6.2,0.4,7.8
						C8,62,7.9,62.8,7.8,61.3c-0.1,8,0.5,17.9,0.2,24.1l-0.1-0.6c0,1.5,0.3,2.6,0.1,4.5c-0.1-0.1-0.1-0.6-0.2,0.1
						c0.1,0.8,0.3,4,0.2,6l-0.2-1.7c-0.2,7.8,0.4,12,0.5,18.6c-0.4,0-0.6,6.1-0.7,9.2l-0.1-0.1c0,2.3,0,4.4,0,6.4c0,1,0,2,0.1,3
						c0.1,1,0.2,2,0.2,3c0.5,3.9,1.3,7.6,3,11.6c0.8,2.6,2.7,6.8,5.9,10.7c3.1,3.9,7.4,7.4,11.1,9.6c-0.6-0.4-0.5-0.4-0.1-0.3
						c0.4,0.1,1.1,0.5,1.8,0.8c0.9,0.5,2.2,1.1,3.2,1.4c1.1,0.3,1.8,0.6,1.6,0.8l-0.7-0.3c0.7,0.4,2,1.1,3.6,1.5
						c0.8,0.2,1.7,0.5,2.5,0.6c0.9,0.1,1.7,0.3,2.6,0.4l0.6-0.4c0.5,0.1,1.1,0.2,1.6,0.3c0.6,0.1,1.2,0.1,1.8,0.2
						c1.2,0.1,2.4,0.1,3.7,0.1c2.5,0,5.1,0,7.6-0.1c5-0.1,9.5-0.2,11.7,0.2c2-0.1,4.5-0.1,6.5-0.3l-0.1,0.3c5.6,0.1,8.3,0.1,15.2,0
						l-1.4,0.2c3.9,0,4.9-0.8,8.5-0.8l1.1,0.4c6.8,0,13.6,0.4,20.3,0c-0.1,0.1-0.3,0.2-1.4,0.2c3.2,0,12.3,0.3,11.1-0.3
						c0.1,0.4,7,0,10.6-0.1l-0.6,0.3c3.1-0.4,3.2-0.5,7.5-0.6c1,0,0.9,0.2-0.5,0.2c3.4,0.1,2.6-0.3,6.8-0.1l-1.5,0.2
						c3.5,0,3.2-0.1,5.1-0.3c2.2-0.1,6.6,0.1,7.1,0.3c0.5-0.2,2.4-0.4,4.4-0.3c0.3,0.1-0.5,0.2-0.8,0.2c5.8,0.2,8.7-0.3,12.7-0.1
						c0.1,0.1,0.3,0.1,0.7,0.2c-4.6,0-8.4,0-8,0c0,0.3,3.7,0.3,0.8,0.7c3-0.2,8.2-0.6,11.8-0.5c0.2,0,0.3,0,0.5,0.1l-0.4,0
						c0.8,0,1.6,0,2.3,0c1.2,0,1.9,0.1,3,0.1c0.4,0.2,4.3,0.1,6.2,0.1c-0.2-0.3,2.3-0.2,0-0.5c0.3,0-0.4,0-1.6,0c-0.3,0-0.6,0-0.8,0
						c0,0,0.1,0,0.1,0c-1.2,0-2.8,0-4.6,0c1.5-0.1,3-0.3,5.1-0.1c1-0.2,2-0.4,2.6-0.5c2.6,0.4,7.5,0.6,8.2,0.8
						c5.7-0.2,13.4-0.1,17-0.6c1.6-0.1,1.9,0.2,2.5,0.2c-0.9,0.1-2.1,0-2.6,0.1c3.2-0.1,9.6-0.1,10.4-0.4c4.1,0.2-2.3,0.3,3.3,0.3
						l-0.8,0.1c11,0.6,18-0.9,30.2-0.2c-0.8,0-1.3-0.1-1.4-0.1c14,0.3,28.8-0.3,42.6,0.2c3.9,0.1,4.3-0.1,6.7-0.3l0.8,0.3l4.1-0.3
						c5.8-0.3,10,0.7,17.4,0.3l-0.9-0.2c2.6,0,8.3-0.1,7.9,0.1c0.3,0,0.9-0.2,1.9-0.1l0.1,0.2l6.5-0.3c5,0.1-0.8,0.6,6.5,0.7
						c2.7-0.1,7.8-0.5,6.7-0.6c-1.1,0-2.8-0.1-2.9-0.3l2.5-0.1c0.5-0.5,2.4-0.9-3.7-1.3l-4.3,0.3l-1.4-0.2l3.6,0
						c-2-0.2-3.3,0-4.8,0.1c-0.3-0.1-0.9-0.2-1.8-0.2l-4.2,0.4c-0.5-0.2,1.9-0.4-0.9-0.5c-2,0.2,1.9,0.4-1.4,0.5
						c-2-0.2-1.4-0.4-3.8-0.2c-0.3-0.1,0.2-0.2,1.1-0.2c-2.1,0.1-5.6,0.1-6.7,0.3c-2.1-0.3-7.2,0.1-7-0.4c-0.7,0.1-3.7,0.3-5.7,0.4
						c3.6-0.5-7.3,0-6.4-0.6c-2.6,0.5-9.6,0.2-14.2,0.5c0.3,0,0.8-0.1,1.2-0.1c-2.6,0-3.4-0.2-5.1-0.3c-0.3,0.4-4.4,0.5-6.7,0.7
						c-3.2-0.4,2-0.5,0.9-0.8c0.2,0.3-5.6,0.3-4.5,0.6c-2.5-0.2-2.1-0.1-3.4-0.4c-0.4,0.5-2.3,0.1-4.3,0.4c-3.6-0.2-0.9-0.5-4.8-0.3
						C274.2,168.1,277.7,167.9,277.7,167.9z M184.3,168.7L184.3,168.7c0.8,0,1.5,0,1.9,0C185.8,168.7,185.2,168.7,184.3,168.7z
						 M176.4,168.7c1,0,2.1,0,3.4,0c0.3,0.1,0,0.2-0.8,0.2C179.4,168.9,177.6,168.8,176.4,168.7z M193,170.7c-1.2,0-1.7,0-1.8-0.1
						c0.6,0,1.3,0,2.2,0c0,0,0.1,0,0.1,0C193.4,170.6,193.3,170.7,193,170.7z"/>
					<path fill="#F8A13B" d="M195.3,170.3c0.2,0,0.3,0,0.5,0c-0.3,0-0.5,0-0.7-0.1c-0.2,0-0.3,0.1-0.4,0.1
						C194.8,170.3,195.1,170.3,195.3,170.3z"/>
					<path fill="#F8A13B" d="M401,35.7l-0.1-0.2c0,0.1,0.1,0.3,0.1,0.3C401,35.8,401,35.8,401,35.7z"/>
					<polygon fill="#F8A13B" points="68,168.2 68,168.3 68.7,168.2 					"/>
					<path fill="#F8A13B" d="M403,78.7c0,0.1-0.1,0.2-0.1,0.6C403,79.2,403,79,403,78.7z"/>
					<path fill="#F8A13B" d="M403,97.4l-0.1,2.6C402.9,98.9,403,98,403,97.4z"/>
					<path fill="#F8A13B" d="M402.8,111.7c0,0.2,0.1,0.2,0.1,0.3c0,0,0,0,0,0L402.8,111.7z"/>
					<path fill="#F8A13B" d="M258.4,13.1c-0.2,0-0.4,0-0.6,0C256.5,13.1,257.4,13.1,258.4,13.1z"/>
					<path fill="#F8A13B" d="M326.3,12.4c-0.7,0.1-1.4,0.1-2.2,0.1C325.3,12.6,326.3,12.6,326.3,12.4z"/>
					<path fill="#F8A13B" d="M182.5,13.4C182.5,13.4,182.5,13.4,182.5,13.4c-0.2,0-0.3,0-0.5,0L182.5,13.4z"/>
					<path fill="#F8A13B" d="M321,12.6c1.2,0.1,2.2,0,3.2,0C323.1,12.5,322,12.5,321,12.6z"/>
					<path fill="#F8A13B" d="M381.5,164.7l-0.6,0.3c0,0,0,0-0.1,0.1L381.5,164.7z"/>
					<path fill="#F8A13B" d="M380.8,165.1l-0.7,0.4C380.4,165.3,380.7,165.2,380.8,165.1z"/>
					<path fill="#F8A13B" d="M378.7,166.1c0,0,0.4-0.2,0.7-0.3c0.2-0.1,0.4-0.2,0.5-0.2c0.1-0.1,0.2-0.1,0.2-0.1
						C379.7,165.7,379,165.9,378.7,166.1z"/>
					<path fill="#F8A13B" d="M395.6,153l0-0.2C395.6,152.8,395.6,152.9,395.6,153z"/>
					<path fill="#F8A13B" d="M398.6,148.1c-0.3,0.6-0.8,1.3-1.3,2.1c-0.5,0.7-1,1.6-1.6,2.3l0,0.2c0.1-0.2,0.3-0.5,0.6-0.9
						c0.3-0.4,0.5-0.8,0.9-1.3C397.7,149.7,398.4,148.8,398.6,148.1z"/>
					<path fill="#F8A13B" d="M404.1,125.1l-0.1,4.8c0.1-0.8,0.3-2,0.3,0.2C404.6,124.1,404,131.4,404.1,125.1z"/>
					<path fill="#F8A13B" d="M404.2,110.1c0.1,2.6,0.2,0,0.2,0.1C404.4,108.5,404.3,108.1,404.2,110.1z"/>
					<path fill="#F8A13B" d="M376.6,13.1l0.3-0.2C374.9,12.4,376.9,13.1,376.6,13.1z"/>
					<polygon fill="#F8A13B" points="355.8,12.7 357.8,12.8 358.7,12.6 					"/>
					<polygon fill="#F8A13B" points="343.6,10.9 344.4,10.8 341.1,10.9 					"/>
					<path fill="#F8A13B" d="M161.4,10.9l0.6,0.3C163.3,11.2,163.6,10.9,161.4,10.9z"/>
					<path fill="#F8A13B" d="M82.7,11.3c-0.9-0.2-3.1-0.3-4.4-0.1C80.1,11.2,81.8,11.3,82.7,11.3z"/>
					<path fill="#F8A13B" d="M47.1,170.7l-1.6,0C45.5,170.7,46.3,170.7,47.1,170.7c0.7,0.1,1.4,0.1,1.4,0.1s-0.3,0-0.7,0
						C47.5,170.7,47.1,170.7,47.1,170.7z"/>
				</g>
			</g>
		</g>
	</g>
</g>
<g>
	<path fill="#FFFFFF" stroke="#F7931E" stroke-miterlimit="10" d="M102.2,86.5c0,5.2-1.4,10.9-4.2,17.1c-2.3,4.9-5.1,9.6-8.5,14
		c-3,3.7-5.3,5.9-6.7,6.6c-0.7,0.3-1.5,0.4-2.4,0.4c-2.1,0-4.5-0.7-7.2-2c-2.4-1.1-4.2-2.3-5.4-3.6V67.1c0.1-1.2,0.9-2,2.2-2.2
		c0.1,0,1.3,0.1,3.6,0.5c0.4,0,1.9-0.5,4.3-1.5c2.4-1.1,4.5-1.6,6.2-1.6c2.1,0,4.1,0.6,6,1.7c1.1,0.7,2.8,2,5,3.9
		c3.2,2.8,5.3,5.7,6.3,8.8C101.9,78.6,102.2,81.9,102.2,86.5z M90.2,72.6c-0.2-0.1-0.6-0.2-1.2-0.2c-2.5,0-5.6,1.1-9.1,3.3v32.4
		c3.3-1.9,6-6.5,8.4-13.8c2-6.3,3-12,3-17.1C91.3,74.5,90.9,73,90.2,72.6z"/>
	<path fill="#FFFFFF" stroke="#F7931E" stroke-miterlimit="10" d="M137.1,123.7c-1,0.1-2.1,0-3.4-0.4c-1.2-0.4-2.5-0.7-3.7-1.1
		c-1.4-0.4-3.7-1.1-6.8-2.1c-3.8-1.7-6.7-5-8.7-9.9c-1.7-4.4-2.6-9.6-2.6-15.8c0-5,0.9-10.9,2.6-17.6c2.4-9,5.4-13.5,9.1-13.5
		c0.3,0,0.8,0.1,1.4,0.3c0.6,0.2,1.1,0.3,1.4,0.3c3.6-1,5.8-1.5,6.8-1.5c0.5,0,1,0,1.4,0.1c5.8,0.7,10.3,4.3,13.6,10.8
		c3,5.9,4.5,12.8,4.5,21c0,7.7-1.3,14.3-4,19.8C146,119.8,142.1,123.1,137.1,123.7z M135.8,70.9c-1.1-0.3-2.1,1.1-3.1,4.2
		c-1,3.1-2.1,4.7-3.1,4.7c-0.2,0-0.6-0.1-1-0.4c-0.5-0.3-0.8-0.4-1.1-0.5c-1.6,3.6-2.4,8.7-2.4,15.4c0,5.2,0.6,9.7,1.7,13.5
		c1.2,4.2,3,6.5,5.2,6.9c2.6,0.5,4.7-2.2,6.3-8c1.4-5.1,2.1-11.1,2.1-18.1c0-4.8-0.4-8.7-1.1-12C138.3,73.2,137.2,71.3,135.8,70.9z"
		/>
	<path fill="#FFFFFF" stroke="#F7931E" stroke-miterlimit="10" d="M202.3,66c0,0.5-0.1,1-0.3,1.5c-0.3,0.8-0.6,1.5-0.6,1.9V117
		c0-0.1,0.1,0.7,0.4,2.7c0.3,2.2,0,3.6-0.9,4.3c-0.9,0.7-2.8,0.9-5.8,0.6c-1.7-0.1-3.7-0.6-6-1.4c-2.9-0.9-4.5-1.9-4.8-2.9
		c0-0.7,0-1.7-0.2-3.1c-2.7-7.1-5.8-14.9-9.4-23.4v21.3c0,0.4,0.2,0.9,0.5,1.5c0.4,0.8,0.6,1.2,0.6,1.3c0.2,0.7,0.4,1.4,0.4,2.2
		c0,1.9-0.9,2.9-2.6,2.9c-1.7,0-4.1-0.5-7.1-1.4c-2.9-1-4.5-1.7-4.9-2.2c-0.6-0.8-0.6-1.8,0-3c0.6-1.2,0.9-1.9,0.9-2.2V68.9
		c0-0.3-0.1-0.7-0.2-1.3s-0.2-1-0.1-1.4c0.5-1.6,1.4-2.7,2.8-3.3c0.2-0.1,0.8-0.1,1.6-0.1c1.9,0,3.8,0.2,5.8,0.7
		c2.5,0.6,4.3,1.4,5.3,2.4c1.3,1.4,3.1,5.8,5.3,13.2c2.6,9,4.7,15.1,6.2,18.3V69.1c0-0.4-0.1-0.9-0.3-1.6c-0.2-0.7-0.3-1.2-0.3-1.6
		c0-0.3,0-0.6,0.1-0.8c0.2-0.8,1.2-1.4,2.7-1.8c1.2-0.3,2.4-0.5,3.6-0.4c1.1,0.1,2.4,0.4,4,0.8C201.2,64.4,202.3,65.2,202.3,66z"/>
	<path fill="#FFFFFF" stroke="#F7931E" stroke-miterlimit="10" d="M257.8,118.5c0,0.4-0.1,1.5-0.3,3.1c0,0.9-0.2,1.5-0.6,1.9
		c-0.2,0.1-0.6,0.2-1.2,0.2c-1.6,0-3.6-0.4-5.9-1.2c-2.5-0.8-4.3-1.7-5.2-2.7c-0.4-0.4-0.8-1.9-1.2-4.3c-0.5-3.2-1.1-5.9-1.8-8
		c-1.8,0.2-4.5,0.9-8,2c-3.5,1.1-5.8,2-6.8,2.7c-0.7,2.1-1.7,4.6-2.9,7.6c-0.1,0.7-0.3,1.3-0.5,1.9c-0.2,0.6-0.6,1.1-1.3,1.5
		c-0.1,0.1-0.4,0.1-0.6,0.1c-1.2,0-3.1-0.6-5.8-1.8c-2.7-1.2-4.1-2-4.2-2.4c-0.2-0.7,0.3-2.3,1.4-5c1.5-3.8,2.4-6.2,2.7-7.1
		c-1-1-1.5-2-1.5-3c0-0.2,0-0.5,0.1-0.8c0.1-0.6,1.6-1.6,4.4-3.1l9.3-31.8c0.1-0.6,0.2-1.6,0.1-3.2c-0.1-1.3,0-2.1,0.4-2.4
		c0.2-0.2,0.8-0.4,1.7-0.4c2.3,0,5.5,0.6,9.6,1.7c4.2,1.2,6.7,2.2,7.5,3.1c0.3,5.3,1.4,13.3,3.2,24
		C252.8,104.5,255.3,113.5,257.8,118.5z M239,96.7c-0.6-3-1-5-1.2-6c-0.5-3.2-0.9-6.6-1.1-10c-1,2.4-2.1,5.6-3.4,9.8
		c-1.4,4.4-2.1,7.1-2.2,8.2C232.1,98.3,234.7,97.6,239,96.7z"/>
	<path fill="#FFFFFF" stroke="#F7931E" stroke-miterlimit="10" d="M295.5,74.6c-0.4,0-0.9-0.2-1.6-0.5c-0.7-0.3-1.2-0.4-1.7-0.3
		l-7.4,2v37.9c0,1.4,0.3,2.9,1,4.5c0.2,0.5,0.1,1.4-0.1,2.7c-0.3,1.5-0.7,2.4-1.4,2.8c-0.1,0-0.3,0.1-0.7,0.1
		c-1.6,0-3.8-0.3-6.6-0.9c-3.2-0.7-5-1.4-5.6-2.1c-0.7-0.9-0.6-2,0.1-3.5c0.6-1.2,0.9-2.2,0.9-2.7V79l-5.1,1.3
		c-0.2,0-0.6,0.3-1.2,0.6c-0.6,0.4-1,0.5-1.4,0.4c-1.1-0.3-2.6-1.7-4.5-4.3c-1.9-2.6-2.8-4.3-2.5-5.2c0.4-1.1,1.5-1.9,3.4-2.5
		c0.5-0.1,1.1-0.2,1.9-0.1c0.8,0.1,1.4,0.1,1.8,0l25.1-6.4c0.2,0,0.9-0.3,2.1-0.9c0.8-0.3,1.5-0.5,2.1-0.4c1.3,0.2,2.3,0.7,2.7,1.6
		c0.3,0.6,0.7,1.7,1.1,3.2c0.5,1.9,0.7,3.5,0.7,4.9c0,1.1-0.1,1.9-0.4,2.4C297.8,74.3,297,74.6,295.5,74.6z"/>
	<path fill="#FFFFFF" stroke="#F7931E" stroke-miterlimit="10" d="M339.6,113.5c-0.1,0.8-0.6,1.7-1.3,2.6c-0.7,0.9-1.3,1.5-1.8,1.7
		c-0.1,0-0.4,0-0.8-0.3c-0.4-0.2-0.7-0.3-0.9-0.3c-0.1,0-0.2,0-0.3,0.1c-1.5,0.4-3,1-4.5,1.7c-3.6,1.6-6.8,3.7-9.8,6.3
		c-4.8-2-7.4-3-7.8-3.2c-3-1.3-4.5-2.3-4.5-2.9V65c0-0.3,0.6-0.8,1.7-1.4c1.1-0.6,2-0.9,2.5-0.9c0.6,0,1.7,0.4,3.5,1.1
		c1.7,0.7,3.1,1,4.2,1c1.4,0,3.3-0.6,5.6-1.9c2.1-1.2,3.4-1.8,4-1.6c1.2,0.4,2.9,1.6,5.1,3.8c2.3,2.1,3.5,3.7,3.7,4.6
		c0.1,0.4-0.3,1.2-1.3,2.2c-1,1.1-1.8,1.6-2.4,1.6c-0.5,0-0.9-0.1-1.2-0.2c-0.2-0.1-0.4-0.2-0.5-0.1c-1.7,0.4-3.3,0.8-4.8,1.4
		c-3.6,1.2-6.2,2.6-7.8,4.2v11.7c1.7-0.9,3.9-1.8,6.6-2.7c0.8-0.1,2.4,1,4.9,3.2c2.5,2.2,3.7,3.8,3.7,4.6c0,0.5-0.3,1.2-1,1.9
		c-0.7,0.7-1.3,1.2-1.9,1.4c-0.5,0-1.3,0-2.5,0.1c-1.8,0.3-5,1.9-9.6,4.6v7.6c1.4-0.9,3.4-1.9,5.9-3.1c2.5-1.2,4-1.8,4.6-1.8
		c0.7,0,2.4,1,5.1,3.1C338.4,111.6,339.7,112.9,339.6,113.5z"/>
</g>
<g>
</g>
<g>
</g>
<g>
</g>
<g>
</g>
<g>
</g>
<g>
</g>
<g>
</g>
<g>
</g>
<g>
</g>
<g>
</g>
<g>
</g>
<g>
</g>
<g>
</g>
<g>
</g>
<g>
</g>
</svg>
