<?xml version="1.0" encoding="utf-8"?>
<!-- Generator: Adobe Illustrator 18.1.1, SVG Export Plug-In . SVG Version: 6.00 Build 0)  -->
<!DOCTYPE svg PUBLIC "-//W3C//DTD SVG 1.1//EN" "http://www.w3.org/Graphics/SVG/1.1/DTD/svg11.dtd">
<svg version="1.1" id="Layer_1" xmlns="http://www.w3.org/2000/svg" xmlns:xlink="http://www.w3.org/1999/xlink" x="0px" y="0px"
	 width="482px" height="113px" viewBox="52 311 482 113" enable-background="new 52 311 482 113" xml:space="preserve">
<g>
	<g>
		<path fill="#FFFFFF" d="M159.8,339.7c0-0.1-1.3-7.8-5.2-11.5c-2.9-2.8-7.2-3.7-11.2-4.1c-5.4-0.5-56.7-1.5-67.3,1.1
			c-1.3,0.3-2.9,1.2-4.4,2c-3.2,1.9-5.6,4.9-6.6,8.5c-2,7.6-1.4,18.5-1.4,18.5v0.1l-0.2,31.2c0,0,0.1,10.6,0,15.8
			c0,4.5,1,8.4,4.2,11.8c1.2,1.3,2.9,2.5,4.6,2.9c0.8,0.2,7.3,1.2,11.6,0.7c2.1-0.2,3.6-2,3.6-4.1c-0.1-3.6-0.2-9.6-0.2-12.9
			c0-0.9-0.2-1.7-0.5-2.4c-1.2-2.2-2.5-4.5-3.8-6.7c-2.9-4.9-5.6-9.8-6.7-15.6c-2.3-11.7,2.2-24.5,12-31.5
			c4.7-3.4,10.4-5.3,16.2-6.5c5.7-1.2,11.7-1.5,17.5-0.5c9.3,1.7,23.7,9.6,20.2,21.3c-0.6,2-0.4,4,0.9,5.8c1.6,2.3,3.2,4.7,4.8,7
			c1.6,2.2,1.1,4.2-1.4,5.3c-1.6,0.7-2.5,1.8-2.4,3.7c0,0.9-0.4,2.1-1,2.8c-0.7,0.9-0.8,1.5-0.2,2.5c0.5,0.9,0.8,2.5,0.2,3
			c-2.2,2.4-2.6,4.9-1.5,7.9c0.2,0.5,0.2,0.9,0.2,1.5c0.1,2.9-0.7,3.8-3.6,3.9c-2.2,0.1-4.5,0-6.7,0c-1.8,0-3,0.9-3.2,2.6
			c-0.3,3.5-0.5,7-0.7,10.6c-0.1,1.5,0.8,2.3,2.2,2.3c6,0,12.1,0,18.2,0c0.9,0,1.8-0.4,2.6-0.7c0.5-0.2,1.4-0.5,2.2-0.9
			c1.1-0.5,6-3.9,6.9-12.3c0-0.1,0-0.1,0-0.2l0.5-21.8v-29.1C160.3,352.2,160.7,343.1,159.8,339.7z"/>
		<path fill="#FFFFFF" d="M135.1,362.8c0.3,0.1,0.6,0.2,0.9,0.5c0.6,0.6,0.6,1.8,0.2,2.5c-1.1,1.5-4.6,1.4-4.7-0.8
			C131.2,363.3,133.6,362.4,135.1,362.8z"/>
	</g>
	<path fill="#FFFFFF" d="M235.5,414l-43-58v53.5c0,4.3-3.9,7.8-8.4,7.8s-8.3-3.5-8.3-7.8v-78.4c0-4,3.4-7.8,8.4-7.8
		c2.6,0,5.1,1.2,6.7,3.3l43,58V331c0-4.3,3.7-7.8,8.4-7.8c4.6,0,8.3,3.5,8.3,7.8v78.4c0,4.2-3.7,7.8-8.3,7.8
		C239.6,417.3,237.1,416.2,235.5,414z"/>
	<path fill="#FFFFFF" d="M265.7,370.3c0-25.9,19.8-47,44.3-47c24.4,0,44.4,21.1,44.4,47s-19.9,47-44.4,47
		C285.4,417.3,265.7,396.3,265.7,370.3z M281.1,370.3c0,17.3,12.9,31.3,28.8,31.3c16,0,28.9-14,28.9-31.3S325.9,339,309.9,339
		C294.1,339.1,281.1,353,281.1,370.3z"/>
	<path fill="#FFFFFF" d="M440.5,406.6c0.5,0.9,0.5,2,0.5,2.9c0,4-3.2,7.8-8.3,7.8c-3.2,0-6.4-1.9-7.7-4.9l-6.3-14.6h-38.6l-6.3,14.6
		c-1.3,3.1-4.4,4.9-7.7,4.9c-4.9,0-8.3-3.9-8.3-7.8c0-1.1,0.2-2,0.5-2.9l33.2-78.3c1.3-2.9,4.4-4.9,7.8-4.9c3.2,0,6.4,2,7.7,4.9
		L440.5,406.6z M412.1,382.2l-12.5-29.9l-12.7,29.9H412.1z"/>
	<path fill="#FFFFFF" d="M523.8,331.2v78.4c0,4.3-3.7,7.8-8.4,7.8c-4.6,0-8.3-3.5-8.3-7.8v-31.5h-37.3v31.5c0,4.3-3.9,7.8-8.4,7.8
		s-8.3-3.5-8.3-7.8v-78.4c0-4.3,3.7-7.8,8.3-7.8s8.4,3.5,8.4,7.8v31.5h37.3v-31.5c0-4.3,3.7-7.8,8.3-7.8
		C520.1,323.4,523.8,326.9,523.8,331.2z"/>
</g>
</svg>
